<svg height="512" viewBox="0 0 192 192" width="512" xmlns="http://www.w3.org/2000/svg"><path d="m144 48v8a16 16 0 0 1 -16 16h-10.879l-5.721 20.332a16.055 16.055 0 0 1 -15.4 11.668h-1a16 16 0 0 1 -15.522-12.119l-4.97-19.881h-10.508a16 16 0 0 1 -16-16v-8a8 8 0 0 0 -8 8v64a8 8 0 0 0 2.431 5.743l29.569 28.673v37.584h48v-37.584l29.569-28.673a8 8 0 0 0 2.431-5.743v-64a8 8 0 0 0 -8-8z"/><path d="m64 64h16.754l6.485 25.94a8 8 0 0 0 7.761 6.06h1a8 8 0 0 0 7.7-5.834l7.361-26.166h16.939a8 8 0 0 0 8-8v-48a8 8 0 0 0 -8-8h-8v32h-8v-32h-12v32h-8v-32h-12v32h-8v-32h-8a8 8 0 0 0 -8 8v48a8 8 0 0 0 8 8z"/></svg>