<?xml version="1.0" standalone="no"?>
<!DOCTYPE svg PUBLIC "-//W3C//DTD SVG 20010904//EN"
 "http://www.w3.org/TR/2001/REC-SVG-20010904/DTD/svg10.dtd">
<svg version="1.0" xmlns="http://www.w3.org/2000/svg"
 width="2133.000000pt" height="2133.000000pt" viewBox="0 0 2133.000000 2133.000000"
 preserveAspectRatio="xMidYMid meet">
<metadata>
Created by potrace 1.11, written by Peter Selinger 2001-2013
</metadata>
<g transform="translate(0.000000,2133.000000) scale(0.100000,-0.100000)"
fill="#000000" stroke="none">
<path d="M12501 18649 c-272 -73 -464 -292 -497 -569 -4 -30 -7 -209 -7 -397
l0 -343 -91 0 c-50 -1 -424 -2 -831 -4 -673 -3 -803 -6 -960 -21 -27 -2 -81
-7 -120 -10 -38 -4 -81 -8 -95 -10 -14 -2 -50 -6 -80 -10 -30 -3 -66 -8 -80
-10 -29 -5 -70 -12 -125 -20 -23 -3 -52 -7 -65 -10 -23 -5 -50 -9 -110 -19
-49 -8 -237 -48 -315 -67 -44 -11 -87 -22 -95 -23 -8 -2 -44 -12 -80 -21 -67
-17 -77 -20 -275 -81 -66 -21 -124 -39 -130 -40 -31 -7 -221 -78 -230 -85 -5
-5 -15 -9 -23 -9 -7 0 -80 -27 -160 -61 -438 -182 -834 -396 -1217 -657 -173
-118 -199 -136 -205 -143 -3 -3 -43 -34 -90 -69 -47 -35 -90 -69 -96 -75 -6
-5 -29 -23 -50 -40 -63 -49 -207 -173 -298 -255 -141 -127 -425 -418 -543
-556 -10 -12 -40 -47 -68 -79 -27 -32 -56 -68 -64 -79 -8 -12 -17 -23 -20 -26
-3 -3 -24 -27 -46 -55 -22 -27 -44 -55 -50 -62 -12 -13 -153 -206 -175 -239
-8 -12 -49 -73 -91 -136 -379 -562 -668 -1186 -862 -1858 -38 -129 -51 -178
-62 -230 -1 -3 -11 -45 -23 -95 -11 -49 -24 -106 -27 -125 -3 -19 -10 -39 -15
-45 -6 -7 -652 -10 -2069 -10 l-2061 0 2 -1335 3 -1335 2060 -1 c1133 -1 2063
-2 2066 -3 4 0 10 -22 13 -48 9 -58 6 -47 51 -223 63 -249 142 -506 210 -685
14 -38 31 -83 37 -100 5 -16 16 -43 23 -60 7 -16 23 -55 35 -85 122 -313 369
-780 589 -1115 96 -147 324 -462 350 -485 4 -3 19 -22 34 -42 32 -43 139 -169
241 -283 103 -116 375 -387 491 -490 55 -49 105 -94 111 -100 18 -17 99 -83
166 -136 35 -28 81 -64 102 -82 22 -17 76 -58 120 -90 45 -32 89 -65 100 -73
20 -18 346 -234 352 -234 1 0 46 -27 99 -60 53 -33 97 -60 99 -60 1 0 50 -26
108 -59 468 -260 1054 -490 1583 -619 161 -39 351 -82 389 -87 12 -1 62 -10
111 -19 50 -8 108 -18 130 -20 22 -3 74 -10 115 -16 145 -20 197 -26 340 -36
47 -3 108 -8 135 -11 28 -3 424 -6 880 -9 457 -2 835 -4 841 -4 7 0 11 -104
11 -337 0 -186 3 -367 7 -402 7 -63 29 -142 61 -211 60 -134 194 -265 330
-323 129 -54 68 -51 900 -54 789 -4 772 -4 921 30 7 2 45 19 85 39 164 81 282
224 341 412 l23 71 0 7430 c0 4087 -4 7450 -8 7475 -10 52 -49 154 -80 209
-55 95 -146 186 -245 243 -40 24 -74 37 -192 77 -8 3 -364 6 -790 7 -746 3
-778 2 -849 -17z"/>
<path d="M15340 16000 c-4 -3 -7 -603 -6 -1335 l1 -1330 2350 1 c1293 0 2391
3 2440 7 142 11 275 45 414 106 91 40 259 143 313 194 16 14 34 30 40 34 7 4
46 43 86 86 83 89 178 228 228 335 37 78 89 230 98 283 3 19 8 45 12 59 3 14
8 98 11 187 8 238 -28 416 -122 618 -63 134 -191 309 -294 400 -19 16 -46 41
-60 53 -46 42 -202 142 -275 176 -72 33 -200 81 -246 90 -78 17 -120 25 -160
32 -50 8 -4817 12 -4830 4z"/>
<path d="M15335 8000 c-1 -3 -3 -602 -3 -1332 0 -978 3 -1328 12 -1330 19 -7
4759 -1 4811 5 327 41 625 197 843 442 80 90 152 197 201 300 42 88 86 210 96
265 3 19 12 59 20 89 14 55 16 407 2 461 -4 14 -9 39 -13 55 -3 17 -19 73 -36
125 -108 343 -370 643 -693 794 -71 33 -199 81 -245 90 -91 20 -127 26 -173
32 -59 8 -4817 12 -4822 4z"/>
</g>
</svg>
